<svg width="26" height="26" viewBox="0 0 26 26" fill="none" xmlns="http://www.w3.org/2000/svg">
<path d="M7.38617 23.8333V20.7382C7.06333 17.5131 3.25 15.7863 3.25 10.8333C3.25 5.88245 6.20425 2.10595 12.1138 2.16661C16.3681 2.21211 20.3862 4.64311 20.3862 9.59611L22.75 13.3098C22.75 15.7863 20.3862 15.7863 20.3862 15.7863C20.3862 15.7863 20.9777 21.9764 15.6585 21.9764V23.8333" stroke="#14AE5C" stroke-width="1.5" stroke-linecap="round" stroke-linejoin="round"/>
<path d="M11.9167 13C12.4913 13 13.0424 12.7717 13.4487 12.3654C13.8551 11.959 14.0833 11.4079 14.0833 10.8333C14.0833 10.2587 13.8551 9.70756 13.4487 9.30123C13.0424 8.8949 12.4913 8.66663 11.9167 8.66663C11.342 8.66663 10.7909 8.8949 10.3846 9.30123C9.97827 9.70756 9.75 10.2587 9.75 10.8333C9.75 11.4079 9.97827 11.959 10.3846 12.3654C10.7909 12.7717 11.342 13 11.9167 13Z" stroke="#14AE5C" stroke-width="1.5" stroke-linecap="round" stroke-linejoin="round"/>
<path d="M11.9166 14.0833C12.7786 14.0833 13.6052 13.7408 14.2147 13.1313C14.8242 12.5219 15.1666 11.6952 15.1666 10.8333C15.1666 9.9713 14.8242 9.14465 14.2147 8.53516C13.6052 7.92566 12.7786 7.58325 11.9166 7.58325C11.0547 7.58325 10.228 7.92566 9.61853 8.53516C9.00904 9.14465 8.66663 9.9713 8.66663 10.8333C8.66663 11.6952 9.00904 12.5219 9.61853 13.1313C10.228 13.7408 11.0547 14.0833 11.9166 14.0833Z" stroke="#14AE5C" stroke-width="1.5" stroke-linecap="round" stroke-linejoin="round" stroke-dasharray="0.3 2"/>
</svg>
