<svg width="134" height="48" viewBox="0 0 134 48" fill="none" xmlns="http://www.w3.org/2000/svg">
<g filter="url(#filter0_d_54_23)">
<path d="M33.1967 10.9531C36.3684 14.3877 38.3142 19.0281 38.3142 24.1353C38.3142 34.717 29.9612 43.2953 19.6572 43.2953C16.8508 43.2953 14.1893 42.6586 11.8018 41.5187C11.8127 40.4521 12.0025 38.6568 12.1629 37.9683C14.3813 39.2386 16.937 39.9626 19.6572 39.9626C28.169 39.9626 35.0691 32.8764 35.0691 24.1353C35.0691 22.1498 34.713 20.2497 34.0629 18.4986C33.699 19.21 33.2583 19.9051 32.8606 20.3206L22.458 31.696H30.9627L27.9116 35.4033H13.9824L31.1332 17.0194C31.3848 16.691 31.9816 16.1777 32.1756 15.6096C32.176 15.5995 32.1816 15.6333 32.1756 15.6096C32.4129 15.0402 33.1601 12.7325 33.1967 10.9531Z" fill="url(#paint0_linear_54_23)"/>
<path d="M19.6571 4.975C23.827 4.975 27.6771 6.38012 30.7838 8.75407C30.7793 9.96222 30.7397 12.141 30.6046 12.6106C28.0096 9.7435 23.8203 8.30783 19.6571 8.30783C11.1455 8.30783 4.2453 15.394 4.2453 24.1353C4.2453 27.6796 5.37985 30.9518 7.29632 33.5899C7.28703 33.5378 7.29037 33.4796 7.30214 33.4192C7.32345 33.3092 7.37475 33.1798 7.44698 33.0378C7.59182 32.7532 7.82723 32.4067 8.10266 32.0439C8.65389 31.3179 9.37176 30.5184 9.86451 30.0041L21.1573 17.6664H7.7203L10.2469 14.1051L10.2618 14.0838H29.7165L11.9364 33.1625C11.9364 33.1625 10.4488 35.1869 9.87702 36.3677C9.60184 36.936 9.23225 38.2375 9.22506 40.022C4.26277 36.5787 1 30.7485 1 24.1353C1 13.5534 9.35305 4.975 19.6571 4.975Z" fill="url(#paint1_linear_54_23)"/>
<path d="M52.7627 34.3145V30.585L63.982 16.3948L64.0706 17.0012L63.1258 15.7277L63.7754 16.2431H53.1464V12.1802H69.7098V15.9096L58.4608 30.0998L58.3428 29.4328L59.3466 30.7972L58.638 30.2211H69.7098V34.3145H52.7627ZM80.092 34.8906C78.7142 34.8906 77.4939 34.648 76.4309 34.1629C75.3878 33.6777 74.5119 33.0308 73.8033 32.2223C73.1144 31.3935 72.583 30.4738 72.2089 29.4631C71.8547 28.4322 71.6776 27.3811 71.6776 26.3097V25.7033C71.6776 24.5916 71.8547 23.5302 72.2089 22.5196C72.583 21.4886 73.1144 20.5689 73.8033 19.7603C74.4922 18.9518 75.3484 18.3151 76.372 17.8502C77.4152 17.365 78.5961 17.1225 79.9149 17.1225C81.647 17.1225 83.1035 17.5267 84.2846 18.3354C85.4851 19.1236 86.4005 20.1647 87.0303 21.4584C87.6602 22.7318 87.9752 24.1266 87.9752 25.6427V27.28H73.6557V24.5208H85.1112L83.576 25.7942C83.576 24.8038 83.4382 23.9548 83.1627 23.2473C82.8871 22.5398 82.4736 22.0041 81.9225 21.6403C81.3911 21.2562 80.722 21.0642 79.9149 21.0642C79.0882 21.0642 78.3894 21.2562 77.8186 21.6403C77.2478 22.0243 76.8148 22.5903 76.5195 23.3382C76.2243 24.0659 76.0767 24.9655 76.0767 26.0368C76.0767 27.0273 76.2145 27.8965 76.4901 28.6444C76.7656 29.3721 77.1986 29.9381 77.7891 30.3424C78.3796 30.7467 79.1472 30.9488 80.092 30.9488C80.9581 30.9488 81.6667 30.777 82.2178 30.4333C82.7689 30.0898 83.1429 29.6652 83.3397 29.1599H87.6799C87.4436 30.2716 86.9811 31.2622 86.2922 32.1314C85.6033 33.0006 84.7373 33.6777 83.6941 34.1629C82.6508 34.648 81.4501 34.8906 80.092 34.8906ZM96.5678 34.8299C94.6982 34.8299 93.2609 34.2134 92.2574 32.9803C91.2525 31.727 90.7507 29.8471 90.7507 27.3406V17.6985H95.475V27.5833C95.475 28.4727 95.7216 29.1801 96.2135 29.7056C96.7053 30.2313 97.3645 30.494 98.1909 30.494C99.0371 30.494 99.726 30.2211 100.258 29.6754C100.789 29.1296 101.055 28.3917 101.055 27.4619V17.6985H105.78V34.3145H102.029V27.3103H102.354C102.354 28.9881 102.138 30.393 101.705 31.5249C101.291 32.6366 100.671 33.4655 99.845 34.0112C99.0186 34.557 97.9939 34.8299 96.7747 34.8299H96.5678ZM109.101 34.3145V30.585L120.321 16.3948L120.41 17.0012L119.464 15.7277L120.114 16.2431H109.486V12.1802H126.048V15.9096L114.8 30.0998L114.682 29.4328L115.685 30.7972L114.977 30.2211H126.048V34.3145H109.101Z" fill="url(#paint2_linear_54_23)"/>
</g>
<defs>
<filter id="filter0_d_54_23" x="-59.7" y="-55.725" width="246.448" height="159.72" filterUnits="userSpaceOnUse" color-interpolation-filters="sRGB">
<feFlood flood-opacity="0" result="BackgroundImageFix"/>
<feColorMatrix in="SourceAlpha" type="matrix" values="0 0 0 0 0 0 0 0 0 0 0 0 0 0 0 0 0 0 127 0" result="hardAlpha"/>
<feOffset dx="3"/>
<feGaussianBlur stdDeviation="2"/>
<feComposite in2="hardAlpha" operator="out"/>
<feColorMatrix type="matrix" values="0 0 0 0 0 0 0 0 0 0 0 0 0 0 0 0 0 0 0.44 0"/>
<feBlend mode="normal" in2="BackgroundImageFix" result="effect1_dropShadow_54_23"/>
<feBlend mode="normal" in="SourceGraphic" in2="effect1_dropShadow_54_23" result="shape"/>
</filter>
<linearGradient id="paint0_linear_54_23" x1="1.00009" y1="9.93717" x2="39.0127" y2="37.3651" gradientUnits="userSpaceOnUse">
<stop stop-color="white"/>
<stop offset="1" stop-color="#818181"/>
</linearGradient>
<linearGradient id="paint1_linear_54_23" x1="1" y1="9.93716" x2="39.0127" y2="37.3651" gradientUnits="userSpaceOnUse">
<stop stop-color="white"/>
<stop offset="1" stop-color="#818181"/>
</linearGradient>
<linearGradient id="paint2_linear_54_23" x1="89.43" y1="1.23169" x2="89.43" y2="47.0386" gradientUnits="userSpaceOnUse">
<stop stop-color="#FAFAFA"/>
<stop offset="1" stop-color="#949494"/>
</linearGradient>
</defs>
</svg>
