<svg width="25" height="26" viewBox="0 0 25 26" fill="none" xmlns="http://www.w3.org/2000/svg">
<path d="M1 0L1 24.9183H24.5818" stroke="#B13DFF" stroke-width="2"/>
<path d="M14.438 10.5093C14.1168 10.5094 13.8069 10.6269 13.5669 10.8403C13.327 11.0537 13.1739 11.3477 13.1362 11.6665L13.1343 11.6812L13.1333 11.6958L13.1274 11.7905L13.1265 11.8052V16.689C13.1265 17.0101 13.2451 17.32 13.4585 17.5601C13.6719 17.8001 13.9657 17.9541 14.2847 17.9917L14.2993 17.9937H14.313L14.4087 17.9995L14.4233 18.0005H16.061C16.3821 18.0004 16.6921 17.8827 16.9321 17.6694C17.1722 17.456 17.3262 17.1613 17.3638 16.8423L17.3657 16.8286V16.814L17.3716 16.7192L17.3726 16.7036V11.8198C17.3724 11.4988 17.2549 11.1887 17.0415 10.9487C16.8281 10.7087 16.5334 10.5556 16.2144 10.5181L16.2007 10.5161L16.186 10.5151L16.0913 10.5103L16.0757 10.5093H14.438ZM7.13525 8.88623C6.81416 8.88627 6.50416 9.004 6.26416 9.21729C6.02412 9.43074 5.8701 9.72542 5.83252 10.0444L5.83057 10.0581V10.0728L5.82471 10.1675L5.82373 10.1821V15.0659C5.82377 15.3871 5.94133 15.6979 6.15479 15.938C6.36823 16.178 6.66296 16.3311 6.98193 16.3687L6.99561 16.3706L7.01025 16.3716L7.10498 16.3765L7.12061 16.3774H8.7583C9.07941 16.3773 9.38941 16.2598 9.62939 16.0464C9.86944 15.8329 10.0225 15.5383 10.0601 15.2192L10.062 15.2056L10.063 15.1909L10.0688 15.0962L10.0698 15.0815V10.1978C10.0698 9.87653 9.95125 9.56573 9.73779 9.32568C9.5244 9.08587 9.23043 8.93262 8.91162 8.89502L8.89697 8.89307L8.8833 8.89209L8.7876 8.88721L8.77295 8.88623H7.13525ZM14.938 18.6235H14.438C13.9447 18.6235 13.4698 18.4346 13.1108 18.0962C12.7969 17.8001 12.5925 17.4089 12.5269 16.9858L12.5073 16.8022L12.5034 16.6753V11.8208C12.5034 11.3274 12.6923 10.8517 13.0308 10.4927C13.3677 10.1355 13.828 9.9197 14.3179 9.88916L14.4526 9.88525L14.938 9.87158V6.14014C14.938 6.05753 14.9714 5.97784 15.0298 5.91943C15.0736 5.87574 15.1291 5.84637 15.189 5.83447L15.2495 5.82861C15.3258 5.82862 15.3995 5.85702 15.4565 5.90771C15.5116 5.9567 15.5467 6.02342 15.5571 6.09619L15.561 6.15381V9.88623H16.061C16.5543 9.8862 17.0292 10.0743 17.3882 10.4126C17.7445 10.7486 17.9602 11.2074 17.9917 11.6958L17.9956 11.8345V16.689C17.9956 17.1824 17.8068 17.6571 17.4683 18.0161C17.1313 18.3735 16.6713 18.5892 16.1812 18.6196L16.0474 18.6235L15.561 18.6372V20.7466C15.5608 20.8257 15.5304 20.9019 15.4761 20.9595C15.4216 21.0171 15.3472 21.0515 15.2681 21.0562C15.189 21.0608 15.1111 21.0355 15.0503 20.9849C15.0047 20.9467 14.9705 20.8962 14.9526 20.8403L14.9409 20.7827L14.938 20.7319V18.6235ZM7.63525 17.0005H7.13525C6.64185 17.0005 6.16709 16.8116 5.80811 16.4731C5.45074 16.1361 5.23501 15.6762 5.20459 15.186L5.20068 15.0522V10.1978C5.20066 9.70436 5.38955 9.22959 5.72803 8.87061C6.06482 8.51342 6.52437 8.29678 7.01416 8.26611L7.14893 8.26318L7.63525 8.24854V6.14014C7.63525 6.05753 7.66766 5.97784 7.72607 5.91943C7.76982 5.87572 7.8255 5.84646 7.88525 5.83447L7.94678 5.82861C8.02296 5.8287 8.09687 5.85709 8.15381 5.90771C8.19637 5.9457 8.22703 5.99449 8.24365 6.04834L8.25537 6.104L8.2583 6.15381V8.26318H8.7583C9.25157 8.26322 9.72653 8.45117 10.0854 8.78955C10.4443 9.12794 10.6599 9.5911 10.689 10.0835L10.6929 10.2114V15.0659C10.6929 15.5592 10.5039 16.0341 10.1655 16.3931C9.82863 16.7504 9.36838 16.966 8.87842 16.9966L8.74365 17.0005L8.2583 17.0142V20.7466C8.25804 20.8257 8.22762 20.9019 8.17334 20.9595C8.11884 21.0172 8.04361 21.0515 7.96436 21.0562C7.88533 21.0607 7.80732 21.0356 7.74658 20.9849C7.68756 20.9355 7.64903 20.8656 7.63818 20.7896L7.63525 20.7319V17.0005Z" fill="white" stroke="#B13DFF"/>
</svg>
