<svg width="32" height="19" viewBox="0 0 32 19" fill="none" xmlns="http://www.w3.org/2000/svg">
<path d="M6.56104 7.24422C6.78917 5.61019 7.5681 4.10294 8.76906 2.97165C9.97002 1.84036 11.5211 1.15279 13.1658 1.0226C14.8106 0.892414 16.4505 1.32741 17.8144 2.25567C19.1784 3.18393 20.1848 4.54987 20.6672 6.12767M20.6679 6.1269C21.3581 5.70515 22.1407 5.45818 22.9479 5.4074C23.7551 5.35663 24.5625 5.50358 25.3001 5.83552C26.0943 6.20267 26.7752 6.77662 27.2714 7.49725C27.7676 8.21789 28.0609 9.0587 28.1206 9.93161" stroke="#E43800" stroke-width="0.8" stroke-linecap="round" stroke-linejoin="round"/>
<path d="M28.1205 9.93162C28.9878 10.2557 29.7226 10.8592 30.209 11.647C30.6953 12.4348 30.9057 13.3621 30.8068 14.2826C30.708 15.2032 30.3055 16.0646 29.6629 16.7312C29.0204 17.3977 28.1742 17.8315 27.2579 17.964H5.89491M6.56102 7.24423C5.16209 7.1949 3.79917 7.69359 2.76244 8.63412C1.7257 9.57465 1.09705 10.8827 1.01033 12.2798C0.923606 13.6769 1.38567 15.0527 2.29813 16.1142C3.2106 17.1757 4.50139 17.8391 5.89567 17.9632M20.6419 12.7658L26.3425 6.4917M13.5043 8.56957L18.4753 12.9287M2.23626 16.036L11.1963 8.51833" stroke="#E43800" stroke-width="0.8" stroke-linecap="round" stroke-linejoin="round"/>
<path d="M12.3726 9.07213C13.2173 9.07213 13.9021 8.38733 13.9021 7.54259C13.9021 6.69786 13.2173 6.01306 12.3726 6.01306C11.5278 6.01306 10.843 6.69786 10.843 7.54259C10.843 8.38733 11.5278 9.07213 12.3726 9.07213Z" stroke="#E43800" stroke-width="0.8" stroke-miterlimit="10"/>
<path d="M19.6394 15.4472C20.4841 15.4472 21.1689 14.7625 21.1689 13.9177C21.1689 13.073 20.4841 12.3882 19.6394 12.3882C18.7947 12.3882 18.1099 13.073 18.1099 13.9177C18.1099 14.7625 18.7947 15.4472 19.6394 15.4472Z" stroke="#E43800" stroke-width="0.8" stroke-miterlimit="10"/>
</svg>
